<?xml version="1.0" standalone="no"?>
<!DOCTYPE svg PUBLIC "-//W3C//DTD SVG 20010904//EN"
 "http://www.w3.org/TR/2001/REC-SVG-20010904/DTD/svg10.dtd">
<svg version="1.0" xmlns="http://www.w3.org/2000/svg"
 width="700.000000pt" height="700.000000pt" viewBox="0 0 700.000000 700.000000"
 preserveAspectRatio="xMidYMid meet">
<metadata>
Created by potrace 1.14, written by Peter Selinger 2001-2017
</metadata>
<g transform="translate(0.000000,700.000000) scale(0.100000,-0.100000)"
fill="#000000" stroke="none">
<path d="M3333 6667 l-161 -323 19 -35 c17 -30 92 -185 279 -574 54 -113 96
-199 285 -590 43 -88 106 -218 140 -290 35 -71 102 -211 150 -310 102 -211
212 -438 300 -620 34 -71 102 -211 150 -310 48 -99 116 -241 152 -315 36 -74
99 -205 140 -290 42 -85 104 -213 138 -285 68 -141 177 -367 300 -620 87 -179
193 -398 297 -615 152 -314 200 -413 302 -624 58 -120 106 -224 106 -230 0 -8
-555 -11 -2119 -10 l-2120 2 -37 -77 c-20 -42 -75 -155 -121 -251 -47 -96 -98
-201 -114 -233 -16 -32 -29 -60 -29 -62 0 -3 1262 -5 2805 -5 l2805 0 -1747
3495 c-962 1922 -1750 3495 -1753 3495 -3 0 -78 -145 -167 -323z"/>
<path d="M1425 2850 l-1425 -2850 378 0 378 0 22 42 c11 24 54 113 95 198 41
85 106 220 145 300 136 282 230 477 312 645 45 94 111 229 145 300 34 72 96
200 137 285 42 85 108 223 148 305 40 83 109 224 153 315 43 91 105 219 137
285 32 66 97 201 145 300 200 411 373 770 457 945 33 69 93 193 133 275 40 83
104 215 143 295 38 80 111 229 161 333 50 103 91 192 91 198 0 12 -20 56 -189
402 -67 137 -121 253 -121 257 0 5 -4 12 -10 15 -5 3 -650 -1274 -1435 -2845z"/>
<path d="M3468 4301 c-15 -31 -76 -157 -136 -281 -60 -124 -132 -272 -160
-330 -55 -115 -163 -340 -292 -605 -78 -162 -136 -282 -290 -600 -37 -77 -104
-214 -148 -305 -44 -91 -111 -230 -150 -310 -38 -80 -109 -226 -157 -325 -135
-279 -185 -384 -185 -393 0 -4 698 -8 1550 -8 853 0 1550 4 1550 9 0 9 -45
104 -195 412 -59 121 -133 274 -165 340 -162 336 -204 423 -274 568 -101 209
-214 441 -291 602 -60 125 -133 275 -300 620 -132 272 -236 486 -276 572 -21
45 -42 84 -46 86 -5 2 -20 -21 -35 -52z"/>
</g>
</svg>
